<svg xmlns:xlink="http://www.w3.org/1999/xlink" width="140" height="140" viewBox="0 0 140 140" fill="none" xmlns="http://www.w3.org/2000/svg">
            <circle cx="70" cy="70" r="69.4928" fill="#D3FF50" stroke="#000000" stroke-width="1.01449px"></circle>
            <path d="M77.513 78.7533L77.5489 63.2943L75.9348 65.3387L59.1487 82.1248L56.7456 79.7934L73.5676 62.9715L75.5762 61.3216L60.153 61.3933L60.1172 58.1293L80.777 58.1293L80.777 78.7891L77.513 78.7533Z" fill="black"></path>
            <path d="M75.9529 121.478C75.9529 124.544 73.6168 126.88 70.3317 126.88C68.127 126.88 66.8422 125.931 66.0975 124.982C65.6595 124.427 65.3383 123.799 65.1485 123.084H67.4116C67.543 123.42 67.7474 123.712 67.9956 123.96C68.4482 124.413 69.1636 124.836 70.3317 124.836C72.2735 124.836 73.6168 123.478 73.6168 121.478C73.6168 119.419 72.3173 118.12 70.3317 118.12C69.1198 118.12 68.3898 118.587 67.9372 119.098C67.6744 119.39 67.47 119.726 67.3386 120.091H68.9446V121.916H63.9074V120.091H65.0755C65.2945 119.346 65.6303 118.675 66.0829 118.076C66.8568 117.069 68.1854 116.076 70.3317 116.076C73.6168 116.076 75.9529 118.412 75.9529 121.478Z" fill="black"></path>
            <path d="M63.6472 115.985L61.5222 125.982L54.0245 124.388L54.4495 122.389L59.805 123.527L60.23 121.528L55.9456 120.617L56.3402 118.76L60.6246 119.671L61.08 117.529L55.7244 116.39L56.1494 114.391L63.6472 115.985Z" fill="black"></path>
            <path d="M51.579 121.36L50.7476 123.227L42.7447 119.664L43.5761 117.797L46.5772 119.133L49.9028 111.664L51.9035 112.554L48.5779 120.024L51.579 121.36Z" fill="black"></path>
            <path d="M36.2404 101.436L28.6452 108.275L27.1797 106.648L34.775 99.8089L36.2404 101.436Z" fill="black"></path>
            <path d="M32.3711 96.9863L23.52 102.096L22.0964 99.6308L26.3478 92.5399L26.2748 92.4135L25.2731 93.1604L20.0889 96.1536L18.9938 94.2569L27.8449 89.1467L29.2685 91.6124L25.017 98.7032L25.0901 98.8297L26.0918 98.0827L31.276 95.0896L32.3711 96.9863Z" fill="black"></path>
            <path d="M16.4872 79.4589L14.4544 79.6726L13.5387 70.9603L15.5715 70.7466L15.9149 74.0137L24.0464 73.1591L24.2753 75.3371L16.1438 76.1918L16.4872 79.4589Z" fill="black"></path>
            <path d="M18.574 70.0571C15.5973 69.7442 13.4532 67.0965 13.7889 63.902C14.1247 60.7075 16.7724 58.5634 19.7491 58.8763C22.7258 59.1892 24.8699 61.8369 24.5341 65.0314C24.1984 68.2259 21.5507 70.37 18.574 70.0571ZM18.8182 67.7338C20.7784 67.9399 22.3029 66.7054 22.5013 64.8177C22.6997 62.9301 21.4652 61.4056 19.5049 61.1996C17.5447 60.9935 16.0202 62.228 15.8218 64.1157C15.6234 66.0034 16.8579 67.5278 18.8182 67.7338Z" fill="black"></path>
            <path d="M21.1137 58.4802L15.2122 56.5626L15.889 54.4798L21.7905 56.3973C23.1235 56.8304 24.209 56.2773 24.6196 55.0137C25.0301 53.7501 24.4771 52.6646 23.144 52.2315L17.2425 50.314L17.9193 48.2311L23.8208 50.1486C26.3203 50.9607 27.3938 53.0904 26.5636 55.6454C25.7334 58.2004 23.6132 59.2923 21.1137 58.4802Z" fill="black"></path>
            <path d="M23.136 48.8268C20.4807 47.2937 19.6256 44.1026 21.2682 41.2576C22.3632 39.3609 23.8674 38.712 25.0669 38.5616C25.7791 38.467 26.496 38.51 27.2105 38.7034L26.079 40.6632C25.7225 40.6091 25.3547 40.6329 25.003 40.7164C24.3847 40.8821 23.6224 41.268 23.0384 42.2796C22.0893 43.9234 22.597 45.8181 24.304 46.8037C26.0869 47.833 27.862 47.3574 28.8548 45.6377C29.4607 44.5882 29.3832 43.7005 29.1669 43.053C29.0328 42.6721 28.8442 42.3272 28.5811 42.0236L29.7127 40.0637C30.2607 40.633 30.6871 41.2669 30.9792 41.9582C31.4701 43.152 31.7055 44.7884 30.625 46.6598C28.9825 49.5047 25.7913 50.3598 23.136 48.8268Z" fill="black"></path>
            <path d="M32.9937 42.2072L25.3985 35.3685L26.864 33.7409L29.8478 36.4276L32.8764 33.064L29.8926 30.3773L31.358 28.7498L38.9532 35.5885L37.4878 37.2161L34.3954 34.4317L31.3668 37.7953L34.4592 40.5797L32.9937 42.2072Z" fill="black"></path>
            <path d="M52.2026 29.6199C51.4918 28.5619 50.0368 27.4836 47.9729 27.012C46.9573 26.777 46.0174 26.748 45.1859 26.9264L44.9364 26.3662C46.2833 25.335 47.3125 23.6621 47.6479 21.8666C47.8192 20.9593 47.8232 20.1424 47.6418 19.3761L48.202 19.1267C49.0285 20.3729 50.734 21.4036 52.5933 21.7745C53.5066 21.9592 54.3753 21.9719 55.1802 21.8054L55.4296 22.3656C54.0857 23.3315 52.9529 25.4181 52.6991 27.1453C52.5751 28.0156 52.6008 28.7553 52.7628 29.3705L52.2026 29.6199Z" fill="black"></path>
            <path d="M64.6882 18.5599C64.6882 15.4938 67.0243 13.1577 70.3094 13.1577C72.5141 13.1577 73.799 14.1067 74.5436 15.0558C74.9816 15.6106 75.3028 16.2384 75.4926 16.9538H73.2295C73.0981 16.618 72.8937 16.326 72.6455 16.0778C72.1929 15.6252 71.4775 15.2018 70.3094 15.2018C68.3676 15.2018 67.0243 16.5596 67.0243 18.5599C67.0243 20.6186 68.3238 21.918 70.3094 21.918C71.5213 21.918 72.2513 21.4508 72.7039 20.9398C72.9667 20.6478 73.1711 20.312 73.3025 19.9469H71.6965V18.1219L76.7337 18.1219V19.9469H75.5656C75.3466 20.6916 75.0108 21.3632 74.5582 21.9618C73.7844 22.9692 72.4557 23.9621 70.3094 23.9621C67.0243 23.9621 64.6882 21.626 64.6882 18.5599Z" fill="black"></path>
            <path d="M76.9937 24.0531L79.1186 14.056L86.6164 15.6497L86.1914 17.6491L80.8359 16.5108L80.4109 18.5102L84.6953 19.4209L84.3007 21.2775L80.0162 20.3668L79.5609 22.509L84.9165 23.6473L84.4915 25.6468L76.9937 24.0531Z" fill="black"></path>
            <path d="M89.0619 18.6779L89.8933 16.8106L97.8962 20.3737L97.0648 22.2411L94.0637 20.9049L90.7381 28.3743L88.7374 27.4835L92.063 20.0141L89.0619 18.6779Z" fill="black"></path>
            <path d="M104.4 38.6014L111.996 31.7627L113.461 33.3902L105.866 40.229L104.4 38.6014Z" fill="black"></path>
            <path d="M108.27 43.0516L117.121 37.9414L118.545 40.4071L114.293 47.4979L114.366 47.6244L115.368 46.8774L120.552 43.8843L121.647 45.7809L112.796 50.8911L111.373 48.4255L115.624 41.3346L115.551 41.2082L114.549 41.9551L109.365 44.9483L108.27 43.0516Z" fill="black"></path>
            <path d="M124.154 60.5789L126.187 60.3653L127.102 69.0776L125.069 69.2912L124.726 66.0241L116.595 66.8788L116.366 64.7007L124.497 63.846L124.154 60.5789Z" fill="black"></path>
            <path d="M122.067 69.9807C125.044 70.2936 127.188 72.9413 126.852 76.1358C126.516 79.3303 123.868 81.4744 120.892 81.1615C117.915 80.8487 115.771 78.201 116.107 75.0065C116.442 71.8119 119.09 69.6679 122.067 69.9807ZM121.823 72.304C119.862 72.098 118.338 73.3325 118.14 75.2201C117.941 77.1078 119.176 78.6322 121.136 78.8383C123.096 79.0443 124.621 77.8098 124.819 75.9222C125.017 74.0345 123.783 72.5101 121.823 72.304Z" fill="black"></path>
            <path d="M119.527 81.5576L125.429 83.4752L124.752 85.5581L118.85 83.6405C117.517 83.2074 116.432 83.7605 116.021 85.0241C115.611 86.2877 116.164 87.3732 117.497 87.8063L123.398 89.7238L122.721 91.8067L116.82 89.8892C114.32 89.0771 113.247 86.9474 114.077 84.3924C114.907 81.8374 117.028 80.7455 119.527 81.5576Z" fill="black"></path>
            <path d="M117.505 91.2111C120.16 92.7441 121.015 95.9353 119.373 98.7803C118.278 100.677 116.774 101.326 115.574 101.476C114.862 101.571 114.145 101.528 113.43 101.334L114.562 99.3746C114.919 99.4287 115.286 99.405 115.638 99.3214C116.256 99.1558 117.019 98.7698 117.603 97.7582C118.552 96.1145 118.044 94.2197 116.337 93.2342C114.554 92.2049 112.779 92.6805 111.786 94.4001C111.18 95.4496 111.258 96.3373 111.474 96.9848C111.608 97.3657 111.797 97.7107 112.06 98.0143L110.928 99.9742C110.38 99.4049 109.954 98.7709 109.662 98.0797C109.171 96.8858 108.936 95.2495 110.016 93.3781C111.659 90.5331 114.85 89.678 117.505 91.2111Z" fill="black"></path>
            <path d="M107.647 97.8306L115.242 104.669L113.777 106.297L110.793 103.61L107.764 106.974L110.748 109.661L109.283 111.288L101.688 104.449L103.153 102.822L106.245 105.606L109.274 102.243L106.182 99.4582L107.647 97.8306Z" fill="black"></path>
            <path d="M88.4383 110.418C89.149 111.476 90.604 112.554 92.6679 113.026C93.6836 113.261 94.6235 113.29 95.455 113.111L95.7044 113.672C94.3576 114.703 93.3283 116.376 92.993 118.171C92.8216 119.079 92.8177 119.895 92.9991 120.662L92.4389 120.911C91.6123 119.665 89.9068 118.634 88.0476 118.263C87.1343 118.079 86.2655 118.066 85.4607 118.232L85.2112 117.672C86.5552 116.706 87.6879 114.62 87.9418 112.893C88.0657 112.022 88.04 111.282 87.8781 110.667L88.4383 110.418Z" fill="black"></path>
        </svg>