<svg xmlns:xlink="http://www.w3.org/1999/xlink" width="128" height="128" viewBox="0 0 128 128" fill="none" xmlns="http://www.w3.org/2000/svg">
                <path d="M42.1098 24.5847C36.8862 24.5847 32.6376 28.8334 32.6376 34.057C32.6376 39.2806 36.8862 43.5292 42.1098 43.5292C47.3335 43.5292 51.5821 39.2806 51.5821 34.057C51.5821 28.8334 47.3335 24.5847 42.1098 24.5847ZM42.1098 37.2144C40.3665 37.2144 38.9524 35.8003 38.9524 34.057C38.9524 32.3136 40.3665 30.8996 42.1098 30.8996C43.8532 30.8996 45.2673 32.3136 45.2673 34.057C45.2673 35.8003 43.8532 37.2144 42.1098 37.2144Z" fill="#D3FF50"></path>
                <path d="M49.4448 61.2855H47.3979V103.262H49.4448V61.2855Z" fill="#FFFFFF"></path>
                <path d="M91.3565 24.5847C86.1329 24.5847 81.8843 28.8334 81.8843 34.057C81.8843 39.2806 86.1329 43.5292 91.3565 43.5292C96.5802 43.5292 100.829 39.2806 100.829 34.057C100.829 28.8334 96.5737 24.5847 91.3565 24.5847ZM91.3565 37.2144C89.6132 37.2144 88.1991 35.8003 88.1991 34.057C88.1991 32.3136 89.6132 30.8996 91.3565 30.8996C93.0999 30.8996 94.514 32.3136 94.514 34.057C94.514 35.8003 93.0999 37.2144 91.3565 37.2144Z" fill="#D3FF50"></path>
                <path d="M105 55.991C105 51.9425 101.707 48.6559 97.6649 48.6559H74.8592L67.6016 29.0851H65.8647L58.6072 48.6559H35.795C31.7465 48.6559 28.46 51.9489 28.46 55.991V80.3722H34.7748V103.255H36.8216V78.3253H30.5068V55.991C30.5068 53.0724 32.8829 50.7028 35.795 50.7028H60.0213L66.73 32.6235L73.4387 50.7028H97.6649C100.583 50.7028 102.953 53.0789 102.953 55.991V78.3253H96.6383V103.255H98.6851V80.3722H105V55.991Z" fill="#FFFFFF"></path>
                <path d="M86.062 61.2855H84.0151V103.262H86.062V61.2855Z" fill="#FFFFFF"></path>
            </svg>