<svg xmlns:xlink="http://www.w3.org/1999/xlink" width="128" height="128" viewBox="0 0 128 128" fill="none" xmlns="http://www.w3.org/2000/svg">
                <path d="M100.618 29.1307L100.513 28.3864L99.7685 28.2811C99.5297 28.246 93.8632 27.4947 86.2587 28.6041C76.1545 30.0786 67.4757 34.1934 61.1632 40.5059C58.0245 43.6446 55.3282 47.0009 53.1374 50.4837L52.3369 51.7616L50.8764 51.3825C46.3755 50.2028 41.5376 51.5229 38.2444 54.8161L27.9998 65.0607L28.6949 65.7559C33.4977 70.5587 39.6277 71.612 44.3182 68.4452L47.1058 66.5563L47.513 69.8987C47.7799 72.0824 48.4539 74.0344 49.5212 75.6986L50.413 77.0889L44.0022 83.4997L45.3995 84.897L51.8033 78.4932L53.1936 79.385C54.949 80.5084 57.0204 81.1966 59.3586 81.4353L62.4692 81.7513L60.9455 84.4827C58.0947 89.6015 58.9935 96.0685 63.1363 100.204L63.8314 100.899L74.0761 90.6548C77.3693 87.3616 78.6823 82.5237 77.5097 78.0228L77.1305 76.5623L78.4085 75.7618C81.8912 73.571 85.2476 70.8747 88.3863 67.736C94.6988 61.4235 98.8135 52.7447 100.288 42.6405C101.39 35.0711 100.646 29.3905 100.611 29.1307H100.618ZM48.1801 61.6973L48.0397 62.245L44.7114 65.5733C42.9208 67.3638 40.7511 68.3118 38.448 68.3118C36.6083 68.3118 34.7336 67.7219 32.8658 66.5633L30.661 65.1941L39.6487 56.2064C41.994 53.8611 45.238 52.6815 48.5452 52.9694L51.4311 53.2221L50.2374 55.8623C49.437 57.6247 48.798 59.3802 48.3346 61.0794C48.2784 61.283 48.2292 61.4867 48.1731 61.6903L48.1801 61.6973ZM72.6928 89.2575L63.6138 98.3365L62.3639 95.7104C60.3276 91.4342 61.2053 86.3224 64.5476 82.9801L66.6612 80.8665L67.2791 80.7121C67.4827 80.6629 67.6512 80.6208 67.8127 80.5716C69.512 80.1082 71.2674 79.4692 73.0369 78.6688L75.677 77.4751L75.9298 80.368C76.2177 83.6752 75.0381 86.9122 72.6928 89.2645V89.2575ZM94.5513 55.4621C92.6414 59.5838 90.0996 63.2421 87.003 66.3387C75.5787 77.763 65.966 79.4692 61.2545 79.4692C59.148 79.4692 57.2591 79.1322 55.7846 78.5002L52.997 77.2995L59.7167 70.5798L58.3194 69.1824L51.5996 75.9022L50.3919 73.1357C46.9864 65.3135 51.9929 52.4708 62.5605 41.9032C65.6571 38.8066 69.3224 36.2648 73.4371 34.3549L74.7432 33.751L95.1482 54.156L94.5443 55.4621H94.5513ZM98.315 42.5492C97.992 44.7259 97.5426 46.8465 96.9738 48.8547L96.0259 52.2391L76.6671 32.8803L80.0516 31.9324C82.0668 31.3636 84.1943 30.9142 86.357 30.5912C89.8187 30.0716 93.47 29.882 96.9036 30.0435L98.7784 30.1278L98.8626 32.0026C98.975 34.397 98.968 38.1747 98.315 42.5492Z" fill="#FFFFFF"></path>
                <path d="M66.4927 62.4204C70.1089 66.0366 75.9931 66.0366 79.6092 62.4204C81.3576 60.672 82.3196 58.3408 82.3196 55.8621C82.3196 53.3835 81.3576 51.0523 79.6092 49.3039C77.8608 47.5555 75.5296 46.5935 73.051 46.5935C70.5723 46.5935 68.2411 47.5555 66.4927 49.3039C64.7443 51.0523 63.7823 53.3835 63.7823 55.8621C63.7823 58.3408 64.7443 60.672 66.4927 62.4204ZM70.5583 53.3765C71.2253 52.7094 72.1031 52.3443 73.051 52.3443C73.9989 52.3443 74.8766 52.7094 75.5437 53.3765C76.2107 54.0435 76.5759 54.9212 76.5759 55.8692C76.5759 56.8171 76.2107 57.6948 75.5437 58.3619C74.8766 59.0289 73.9568 59.394 73.051 59.394C72.1452 59.394 71.2464 59.05 70.5583 58.3619C69.8702 57.6737 69.5261 56.8101 69.5261 55.8692C69.5261 54.9282 69.8912 54.0435 70.5583 53.3765Z" fill="#D3FF50"></path>
            </svg>