<svg xmlns:xlink="http://www.w3.org/1999/xlink" width="128" height="128" viewBox="0 0 128 128" fill="none" xmlns="http://www.w3.org/2000/svg">
                <path d="M49.3333 36H36C33.171 36 30.4579 37.1238 28.4575 39.1242C26.4571 41.1246 25.3333 43.8377 25.3333 46.6667V81.3333C25.3333 84.1623 26.4571 86.8754 28.4575 88.8758C30.4579 90.8762 33.171 92 36 92H92C94.829 92 97.5421 90.8762 99.5424 88.8758C101.543 86.8754 102.667 84.1623 102.667 81.3333V68" stroke="#FFFFFF" stroke-width="2px" stroke-linecap="round" stroke-linejoin="round" fill="none"></path>
                <path d="M85.3333 25.3333C85.3333 42.6666 68 42.6666 68 42.6666C68 42.6666 85.3333 42.6666 85.3333 59.9999C85.3333 42.6666 102.667 42.6666 102.667 42.6666C102.667 42.6666 85.3333 42.6666 85.3333 25.3333Z" fill="#D3FF50"></path>
            </svg>