<svg xmlns:xlink="http://www.w3.org/1999/xlink" width="128" height="128" viewBox="0 0 128 128" fill="none" xmlns="http://www.w3.org/2000/svg">
                <path fill-rule="evenodd" clip-rule="evenodd" d="M91.6453 29.5825C99.71 35.0951 105.933 42.8712 109.516 51.9185C113.105 60.9595 113.886 70.8625 111.763 80.35C109.641 89.8375 104.716 98.4817 97.6127 105.173C96.7825 105.973 95.8149 106.624 94.7538 107.083C93.6927 107.548 92.5566 107.82 91.4018 107.882C90.2471 107.951 89.086 107.814 87.9812 107.473C86.8763 107.138 85.8402 106.611 84.9164 105.911C81.9077 103.684 78.562 101.954 75.004 100.789C71.4398 99.6165 67.7195 99.0212 63.9681 99.0212C60.2166 99.0212 56.4901 99.6165 52.9321 100.789C49.3742 101.954 46.0222 103.684 43.0135 105.911C42.1022 106.605 41.0785 107.138 39.9799 107.479C38.8813 107.82 37.7328 107.963 36.5842 107.901C35.4357 107.845 34.3059 107.585 33.251 107.132C32.1961 106.679 31.2286 106.047 30.3921 105.259C23.2388 98.5438 18.2763 89.85 16.1541 80.3004C14.0318 70.7509 14.8495 60.7921 18.5011 51.7138C22.1527 42.6294 28.4634 34.8471 36.6217 29.3716C44.78 23.8961 54.4053 20.9755 64.2552 21.0003C74.0427 21.0809 83.5806 24.076 91.6453 29.5825ZM73.431 92.4606C76.4397 91.27 79.1737 89.4841 81.4645 87.2145C83.7553 84.9388 85.553 82.2289 86.7515 79.24C87.95 76.2574 88.5242 73.0577 88.4369 69.8455C88.4369 63.4027 85.8589 57.2265 81.271 52.6688C76.6831 48.111 70.4598 45.55 63.9681 45.55C57.4763 45.55 51.253 48.111 46.6651 52.6688C42.0772 57.2265 39.4993 63.4027 39.4993 69.8455C39.4119 73.0577 39.9862 76.2574 41.1846 79.24C42.3831 82.2289 44.1808 84.9388 46.4716 87.2145C48.7625 89.4841 51.4965 91.27 54.4989 92.4606C57.5076 93.6512 60.7284 94.2217 63.9681 94.1348C67.2014 94.2217 70.4223 93.6512 73.431 92.4606Z" stroke="#FFFFFF" stroke-width="2px" fill="none"></path>
                <path d="M81.4645 87.2145C79.1737 89.4841 76.4397 91.27 73.431 92.4606C70.4223 93.6512 67.2014 94.2217 63.9681 94.1348C60.7284 94.2217 57.5076 93.6512 54.4989 92.4606C51.4965 91.27 48.7625 89.4841 46.4716 87.2145C44.1808 84.9388 42.3831 82.2289 41.1846 79.24C39.9862 76.2574 39.4119 73.0577 39.4993 69.8455C39.4993 63.4027 42.0772 57.2265 46.6651 52.6688C51.253 48.111 57.4763 45.55 63.9681 45.55C70.4598 45.55 76.6831 48.111 81.271 52.6688C85.8589 57.2265 88.4369 63.4027 88.4369 69.8455C88.5242 73.0577 87.95 76.2574 86.7515 79.24C85.553 82.2289 83.7553 84.9388 81.4645 87.2145Z" stroke="#FFFFFF" stroke-width="2px" fill="none"></path>
                <path d="M81.4645 87.2145C79.1737 89.4841 76.4397 91.27 73.431 92.4606C70.4223 93.6512 67.2014 94.2217 63.9681 94.1348C60.7284 94.2217 57.5076 93.6512 54.4989 92.4606C51.4965 91.27 48.7625 89.4841 46.4716 87.2145C44.1808 84.9388 42.3831 82.2289 41.1846 79.24C39.9862 76.2574 39.4119 73.0577 39.4993 69.8455C39.4993 63.4027 42.0772 57.2265 46.6651 52.6688C51.253 48.111 57.4763 45.55 63.9681 45.55C70.4598 45.55 76.6831 48.111 81.271 52.6688C85.8589 57.2265 88.4369 63.4027 88.4369 69.8455C88.5242 73.0577 87.95 76.2574 86.7515 79.24C85.553 82.2289 83.7553 84.9388 81.4645 87.2145Z" stroke="#FFFFFF" stroke-width="2px" fill="none"></path>
                <path d="M64 44C49.6619 44 38 55.6619 38 70C38 84.3381 49.6619 96 64 96C78.3381 96 90 84.3381 90 70C90 55.6619 78.3381 44 64 44ZM64 85.6C55.395 85.6 48.4 78.605 48.4 70C48.4 61.395 55.395 54.4 64 54.4C72.605 54.4 79.6 61.395 79.6 70C79.6 78.605 72.605 85.6 64 85.6Z" fill="#D3FF50"></path>
            </svg>